<svg width="50" height="50" viewBox="0 0 50 50" fill="none" xmlns="http://www.w3.org/2000/svg">
<path d="M25.0063 0H24.9938C11.2094 0 3.28029e-05 11.2125 3.28029e-05 25C-0.00852688 30.2656 1.65831 35.3975 4.7594 39.6531L1.64378 48.9406L11.2531 45.8687C15.3293 48.573 20.1146 50.0104 25.0063 49.9999C38.7906 49.9999 50 38.7843 50 25C50 11.2156 38.7906 0 25.0063 0ZM39.5531 35.3031C38.95 37.0062 36.5563 38.4187 34.6469 38.8312C33.3406 39.1093 31.6344 39.3312 25.8906 36.95C18.5438 33.9062 13.8125 26.4406 13.4438 25.9562C13.0906 25.4718 10.475 22.0031 10.475 18.4156C10.475 14.8281 12.2969 13.0812 13.0313 12.3312C13.6344 11.7156 14.6313 11.4344 15.5875 11.4344C15.8969 11.4344 16.175 11.45 16.425 11.4625C17.1594 11.4937 17.5281 11.5375 18.0125 12.6969C18.6156 14.15 20.0844 17.7375 20.2594 18.1062C20.4375 18.475 20.6156 18.975 20.3656 19.4594C20.1313 19.9594 19.925 20.1812 19.5563 20.6062C19.1875 21.0312 18.8375 21.3562 18.4688 21.8125C18.1313 22.2093 17.75 22.6343 18.175 23.3687C18.6 24.0875 20.0688 26.4843 22.2313 28.4093C25.0219 30.8937 27.2844 31.6875 28.0938 32.025C28.6969 32.275 29.4156 32.2156 29.8563 31.7468C30.4156 31.1437 31.1063 30.1437 31.8094 29.1593C32.3094 28.4531 32.9406 28.3656 33.6031 28.6156C34.2781 28.85 37.85 30.6156 38.5844 30.9812C39.3188 31.35 39.8031 31.525 39.9813 31.8343C40.1563 32.1437 40.1563 33.5968 39.5531 35.3031Z" fill="#CCB49A"/>
</svg>
